<svg width="40" height="40" viewBox="0 0 40 40" fill="none" xmlns="http://www.w3.org/2000/svg">
<rect width="40" height="40" rx="1" fill="#D9D9D9" fill-opacity="0.4"/>
<path d="M25.54 16.31C26.8986 16.31 28 15.2086 28 13.85C28 12.4914 26.8986 11.39 25.54 11.39C24.1814 11.39 23.08 12.4914 23.08 13.85C23.08 15.2086 24.1814 16.31 25.54 16.31Z" stroke="#292D32" stroke-width="1.5" stroke-miterlimit="10" stroke-linecap="round" stroke-linejoin="round"/>
<path opacity="0.4" d="M14.46 16.31C15.8186 16.31 16.92 15.2086 16.92 13.85C16.92 12.4914 15.8186 11.39 14.46 11.39C13.1014 11.39 12 12.4914 12 13.85C12 15.2086 13.1014 16.31 14.46 16.31Z" stroke="#292D32" stroke-width="1.5" stroke-miterlimit="10" stroke-linecap="round" stroke-linejoin="round"/>
<path opacity="0.4" d="M25.54 28.61C26.8986 28.61 28 27.5086 28 26.15C28 24.7914 26.8986 23.69 25.54 23.69C24.1814 23.69 23.08 24.7914 23.08 26.15C23.08 27.5086 24.1814 28.61 25.54 28.61Z" stroke="#292D32" stroke-width="1.5" stroke-miterlimit="10" stroke-linecap="round" stroke-linejoin="round"/>
<path d="M14.46 28.61C15.8186 28.61 16.92 27.5086 16.92 26.15C16.92 24.7914 15.8186 23.69 14.46 23.69C13.1014 23.69 12 24.7914 12 26.15C12 27.5086 13.1014 28.61 14.46 28.61Z" stroke="#292D32" stroke-width="1.5" stroke-miterlimit="10" stroke-linecap="round" stroke-linejoin="round"/>
</svg>
